<svg xmlns="http://www.w3.org/2000/svg" viewBox="0 0 3065 1000">
  <rect width="1000" height="1000" fill="#eff2f7"/>
  <path fill="#16181c" d="M 191 191 H 809 V 382 H 663 V 337 H 337 V 663 H 663 V 618 H 809 V 809 H 191 Z"/>
  <rect x="337" y="337" width="326" height="326" fill="#eff2f7"/><rect x="1267" y="191" width="382" height="146" fill="#eff2f7"/><rect x="1267" y="191" width="146" height="618" fill="#eff2f7"/><rect x="1267" y="663" width="382" height="146" fill="#eff2f7"/><rect x="1739" y="191" width="382" height="146" fill="#eff2f7"/><rect x="1739" y="191" width="146" height="618" fill="#eff2f7"/><rect x="1975" y="191" width="146" height="618" fill="#eff2f7"/><rect x="1739" y="500" width="163" height="146" fill="#eff2f7"/><rect x="1958" y="500" width="163" height="146" fill="#eff2f7"/><rect x="2211" y="191" width="382" height="146" fill="#eff2f7"/><rect x="2211" y="191" width="146" height="382" fill="#eff2f7"/><rect x="2211" y="427" width="382" height="146" fill="#eff2f7"/><rect x="2447" y="427" width="146" height="382" fill="#eff2f7"/><rect x="2211" y="663" width="382" height="146" fill="#eff2f7"/><rect x="2683" y="191" width="382" height="146" fill="#eff2f7"/><rect x="2683" y="191" width="146" height="618" fill="#eff2f7"/><rect x="2683" y="427" width="236" height="146" fill="#eff2f7"/><rect x="2683" y="663" width="382" height="146" fill="#eff2f7"/></svg>
